<?xml version="1.0" encoding="utf-8"?>
<!-- Generator: Adobe Illustrator 26.5.0, SVG Export Plug-In . SVG Version: 6.00 Build 0)  -->
<svg version="1.1" id="레이어_1" xmlns="http://www.w3.org/2000/svg" xmlns:xlink="http://www.w3.org/1999/xlink" x="0px"
	 y="0px" width="24px" height="24px" viewBox="0 0 24 24" style="enable-background:new 0 0 24 24;" xml:space="preserve">
<style type="text/css">
	.st0{fill:#080808;}
</style>
<g>
	<g>
		<g id="그룹_13047">
			<path id="패스_10000" class="st0" d="M17.6,16.8c3.2-3.6,2.8-9.1-0.8-12.3S7.7,1.7,4.5,5.3s-2.8,9.1,0.8,12.3
				c3.3,2.9,8.2,2.9,11.5,0 M11.1,18.6c-4.2,0-7.5-3.4-7.5-7.5s3.4-7.5,7.5-7.5c4.2,0,7.5,3.4,7.5,7.5
				C18.6,15.2,15.2,18.6,11.1,18.6"/>
			
				<rect id="사각형_8106" x="19" y="17.1" transform="matrix(0.7071 -0.7071 0.7071 0.7071 -8.0929 19.5352)" class="st0" width="1.2" height="4.9"/>
		</g>
	</g>
</g>
</svg>
