<?xml version="1.0" encoding="utf-8"?>
<!-- Generator: Adobe Illustrator 26.5.0, SVG Export Plug-In . SVG Version: 6.00 Build 0)  -->
<svg version="1.1" id="레이어_1" xmlns="http://www.w3.org/2000/svg" xmlns:xlink="http://www.w3.org/1999/xlink" x="0px"
	 y="0px" width="24px" height="24px" viewBox="0 0 24 24" style="enable-background:new 0 0 24 24;" xml:space="preserve">
<g>
	<path id="패스_9988" d="M19.7,13.6H21v-1.2H3v1.2H19.7z"/>
	<g id="그룹_13022">
		<g>
			<g id="그룹_13021">
				<path id="패스_9989" d="M12,10.6c-2.3,0-4.1-1.8-4.1-4.1S9.7,2.4,12,2.4c2.3,0,4.1,1.8,4.1,4.1C16.1,8.7,14.3,10.6,12,10.6
					 M12,3.7c-1.5,0-2.8,1.3-2.8,2.8s1.3,2.8,2.8,2.8c1.5,0,2.8-1.3,2.8-2.8C14.8,4.9,13.5,3.7,12,3.7"/>
				<rect id="사각형_8078" x="3" y="15.1" width="1.2" height="6.5"/>
				<rect id="사각형_8079" x="19.8" y="15.1" width="1.2" height="6.5"/>
			</g>
		</g>
	</g>
</g>
</svg>
