<?xml version="1.0" encoding="utf-8"?>
<!-- Generator: Adobe Illustrator 26.5.0, SVG Export Plug-In . SVG Version: 6.00 Build 0)  -->
<svg version="1.1" id="레이어_1" xmlns="http://www.w3.org/2000/svg" xmlns:xlink="http://www.w3.org/1999/xlink" x="0px"
	 y="0px" width="24px" height="24px" viewBox="0 0 24 24" style="enable-background:new 0 0 24 24;" xml:space="preserve">
<style type="text/css">
	.st0{fill:#080808;}
</style>
<g>
	<g>
		<g id="그룹_12848">
			<path id="패스_9906" class="st0" d="M20.4,4.6c-2.1-2.2-5.6-2.2-7.8,0c0,0,0,0,0,0L12,5.2l-0.6-0.6c-2.1-2.2-5.6-2.2-7.8,0
				c0,0,0,0,0,0c-2.2,2.2-2.2,5.7,0,7.9L12,21l0.8-0.8L12,19.3l0,0l-7.6-7.6c-1.7-1.7-1.7-4.5,0-6.3c1.7-1.7,4.4-1.7,6.2,0
				c0,0,0,0,0,0L12,6.8l1.4-1.4c1.7-1.7,4.4-1.7,6.2,0c0,0,0,0,0,0c1.7,1.7,1.7,4.5,0,6.3l-6.7,6.8l0.8,0.8l6.7-6.8
				C22.5,10.4,22.5,6.8,20.4,4.6"/>
		</g>
	</g>
</g>
</svg>
