<?xml version="1.0" encoding="utf-8"?>
<!-- Generator: Adobe Illustrator 26.5.0, SVG Export Plug-In . SVG Version: 6.00 Build 0)  -->
<svg version="1.1" id="레이어_1" xmlns="http://www.w3.org/2000/svg" xmlns:xlink="http://www.w3.org/1999/xlink" x="0px"
	 y="0px" width="24px" height="24px" viewBox="0 0 24 24" style="enable-background:new 0 0 24 24;" xml:space="preserve">
<style type="text/css">
	.st0{fill:#080808;}
</style>
<path class="st0" d="M19.9,8c-0.2-0.7-0.7-1.3-1.5-1.5c-2.1-0.3-4.3-0.4-6.4-0.3c-2.2,0-4.3,0.1-6.4,0.3C4.8,6.8,4.3,7.3,4.1,8
	c-0.2,1.3-0.4,2.6-0.3,4c0,1.3,0.1,2.7,0.3,4c0.2,0.7,0.7,1.3,1.5,1.5c2.1,0.3,4.3,0.4,6.4,0.3c2.2,0,4.3-0.1,6.4-0.3
	c0.7-0.2,1.3-0.7,1.5-1.5c0.2-1.3,0.4-2.6,0.3-4C20.3,10.7,20.1,9.3,19.9,8z M10.4,14.5V9.5l4.3,2.5L10.4,14.5z"/>
</svg>
