<?xml version="1.0" encoding="utf-8"?>
<!-- Generator: Adobe Illustrator 26.5.0, SVG Export Plug-In . SVG Version: 6.00 Build 0)  -->
<svg version="1.1" id="레이어_1" xmlns="http://www.w3.org/2000/svg" xmlns:xlink="http://www.w3.org/1999/xlink" x="0px"
	 y="0px" width="24px" height="24px" viewBox="0 0 24 24" style="enable-background:new 0 0 24 24;" xml:space="preserve">
<style type="text/css">
	.st0{fill:#080808;}
</style>
<g>
	<path id="패스_10001" class="st0" d="M21.6,21.7H2.4V8.7h19.2V21.7z M3.5,20.5h16.9V9.9H3.5V20.5z"/>
	<g id="그룹_13050">
		<g>
			<g id="그룹_13049">
				<path id="패스_10002" class="st0" d="M17.3,7.6h-1.2c0-2.2-1.7-4-4-4.1c0,0-0.1,0-0.1,0C9.9,3.4,8,5.1,7.9,7.4
					c0,0.1,0,0.1,0,0.2H6.7c0-2.9,2.3-5.2,5.2-5.2c0.1,0,0.2,0,0.2,0c2.8,0,5.2,2.3,5.2,5.1C17.3,7.5,17.3,7.5,17.3,7.6"/>
			</g>
		</g>
	</g>
</g>
</svg>
