<?xml version="1.0" encoding="utf-8"?>
<!-- Generator: Adobe Illustrator 26.5.0, SVG Export Plug-In . SVG Version: 6.00 Build 0)  -->
<svg version="1.1" id="레이어_1" xmlns="http://www.w3.org/2000/svg" xmlns:xlink="http://www.w3.org/1999/xlink" x="0px"
	 y="0px" width="24px" height="24px" viewBox="0 0 24 24" style="enable-background:new 0 0 24 24;" xml:space="preserve">
<style type="text/css">
	.st0{fill:#080808;}
</style>
<g id="그룹_13146" transform="translate(3277.75 6773)">
	<g id="그룹_12974" transform="translate(-3271.875 -6767.125)">
		<g id="그룹_10446" transform="translate(4.917 5.161)">
			<path id="패스_9734" class="st0" d="M4.1-6h-6C-4.2-6-6-4.2-6-1.9v6c0,2.3,1.8,4.1,4.1,4.1c0,0,0,0,0,0h6
				c2.3,0,4.1-1.8,4.1-4.1v-6C8.2-4.2,6.4-6,4.1-6C4.1-6,4.1-6,4.1-6 M6.9,4.2c0,1.5-1.2,2.7-2.7,2.7H-2c-1.5,0-2.7-1.2-2.7-2.7
				v-6.1c0-1.5,1.2-2.7,2.7-2.7l0,0h6.1c1.5,0,2.7,1.2,2.7,2.7V4.2z"/>
			<path id="패스_9735" class="st0" d="M1.1-2.6c-2,0-3.7,1.6-3.7,3.7s1.6,3.7,3.7,3.7s3.7-1.6,3.7-3.7c0,0,0,0,0,0
				C4.8-0.9,3.1-2.6,1.1-2.6 M1.1,3.5c-1.3,0-2.4-1.1-2.4-2.4s1.1-2.4,2.4-2.4c1.3,0,2.4,1.1,2.4,2.4C3.5,2.4,2.4,3.5,1.1,3.5
				L1.1,3.5"/>
			<path id="패스_9736" class="st0" d="M4.9-3.6C4.4-3.5,4-3.2,4-2.7c0,0.5,0.4,0.9,0.9,0.9c0.5,0,0.9-0.4,0.9-0.9
				C5.8-3.2,5.4-3.6,4.9-3.6L4.9-3.6"/>
		</g>
	</g>
</g>
</svg>
